<?xml version="1.0"?>
    
<!--********* Copyright (c) 2024 Pareto Softare, LLC DBA Simplemaps.com ***************************************
************* Free for Commercial Use, full terms at  https://simplemaps.com/resources/svg-license ************
************* Attribution is appreciated! https://simplemaps.com *******************************************-->

<svg baseprofile="tiny" fill="#f89e48" height="1000" stroke="#ffffff" stroke-linecap="round" stroke-linejoin="round" stroke-width=".5" version="1.2" viewbox="0 0 1000 1000" width="1000" xmlns="http://www.w3.org/2000/svg">
 <g id="features">
  <path d="M622 49.4l1 2.4 2.4 2.2 2.8 1.6 2.6 0.6 2.6-0.3 4.7-1.2 2.6-0.1 4.7 1.8 2.1 3.4 0.5 4.4-0.4 5-0.4 1.8-0.9 1-1.3 0.8-1.1 1.2-0.7 1.3-3 14.4 0.1 1.3 0.7 2.8-0.2 1.6-1.2 1.1-2.9 2-2 2.5-1 2.5-0.8 5.9-0.5 2-0.8 3.6-0.1 3 1.4 3 1.2 1 1.6 0.7 1.7 0.5 3.2 0.4 1 0.7 0.9 0.8 1.2 0.9 4.4 1.4 1.3 0.8 1.1 1.4 1.6 3.1 1.2 1.4 7.4 4.7 2.2 2.4 7.1 13.3 0.4 0.5 1.1-0.1 0.6-0.8 0.4-0.9 0.4-0.4 3.7 1.4 1.3 0.2 1.6-0.4 1.3-0.7 1.3-0.4 1.4 0.4 1.4 1.4 0.1 1.5-0.5 1.5-0.2 1.3 1.6 2.5 2.4 2.2 1.4 2.3-1.2 2.9 2-0.1 6.1-1 1.3 0.7 2.9 2.3-3.4 2.6-0.7 2.2-0.4 2.3-1 1.9 0.2 4.8-0.7 10.1 1.3 3.7 1.8 1.1 1.6 0.4 1.1 0.9 0.4 2.9-0.5 2.4-0.1 0.4-1.5 0.4-2.2-0.3-2.5 0.4 0.9 1.4-0.1 0.9-0.5 0.9-0.3 1.3 0.3 1 1.6 3.4 1 2.8-0.1 1.1-1 0.9-1.8 2-1.1 2.1-0.3 2 0.7 5.7-0.1 1.6-3 11.1 0.2 2.6 0.7 1.5 1.1 1.1 0.9 1.4 0.6 2.1 0.4 2.6-0.4 2.5-1.5 1.8-2.5 0.3-2.4-1.3-3.7-4-2 4.1 0.1 4.1 2.2 3 4.4 0.5 5.7-1.5 2.8 0.5 1.2 3-1 1.9-2.3 0.7-2.6-0.5-1.9-1.2-2.5 1.6-3.4 0.2-7-0.8-0.3 0.9-0.7 4 0 0.9 0.4 0.4 1 0.9 1.4 1 1.5 0.7 3.5-0.7 2 0.1 1.2 1.5-0.5 1.5-1.8 1.2-2.2 0.9-5.8 1.2 0 2 1 2.3-1.2 1.6 0.7 1.9 2.6 0.3 2.6-0.6 6.4-2.2 1-0.9 0.6-1.2 0.4-2.9 0.7-1.1 2.1-0.9 3.2-0.6 5.6-0.3 2.6 0.4 7.5 2.7 0.9 1.3 0.2 1.4-0.3 1.4-0.9 1.6-0.1 0.2 0.1 0.1 0.1 0.2 4.1 1.4 2.6 2.2 0.8 3.3-1.3 7.2-0.2 4.2-0.6 1.8-1.4 1.5-1.6 0.9-1.1 1.3-0.1 2.8 1.7 5.1 0 2.3-1.7 2.9-3.1 2.8-0.9 1.4 0 2.2-0.7 4.6-2.4 4.4-1.4 4.3 1.8 4.4 0.1 0 6.7 11.5 1.8 7-3.1 4.4-0.7 1.8-0.2 2.2-0.5 1.9-1.6 0.7-1.8-0.3-1.4-0.4-1.3-0.2-1.5 0.5 0.8 0.6-1 2.3-1.4 1.7-1.5-3.2-1.7-0.7-1.8 0.4-0.9 1.3 0.3 1.8 0.9 5.2 4.1 8.9 5.6 7.8 5.6 3.9 2.4 2.7 3.3 3.2 3.7 2.6 9.2 4.4 2.4 5.2 1.8 5.3 5.4 4.5 0.3 1.5 0 1.6 0.3 2.1-0.1 1.4 0.1 0.6 0.5 0.5 1.7 0.3 0.5 0.5 0.6 3.5-1.1 2.1-2.2 1.4-6.2 2.8-2.4 1.5-4.6 4.2-1.2 0.6-1.1 0.1-0.7 0.6-0.1 1.8 0.5 1.5 1.1 1 1 1.2 0.2 2-0.7 1.8-1.1 0.9-0.7 1 0.7 3.5 0.5 6.6 1.3 5.3 0.1 2.7-0.1 5.3 1.4 9.3 0.1 0.7-0.2 8.5 1.3 8.1-0.3 7.3 0.4 2.8-4-0.7-1.8 2.9-0.5 4.4 0.1 3.8-0.8 1.9-1.9 1-2.3 0.6-1.8 0.8-1.4 1.4-0.9 1.5-0.5 1.8-0.5 8.2 0.7 6.9 2.2 6.2 4.4 4 2.6 0.3 2.8-0.5 5.1-1.9 0.9 1.2 2.3 9.3-0.2 3.1-1.9 5.1-1.3 6.6-3.3 8.4-0.5 5.6 0.6 6.3-0.1 6.2-2.7 4.8-1.8 1-5.9 1.6-2 0.1-2.1 0.7 1.6 2.1 4 3.1 1.7 3-0.4 2.4-2.9 4.9-1 3 0.5 1.3 1.3 0.8 1.7 1.4 4.1 7.5 0.9 1.3 2.4 0.5 2.5 1.3 2 2 1.2 2.2 0.1 2.3-1.2 7.1 0.8 3 1.8 1.7 2 1.4 1.2 2.3 1.4 0.1 3.9-0.1 1.2 0.2 1.8 1.8-0.1 1.3-0.9 1.3-0.9 1.8-0.1 0.9-0.2 2.9 0.9 3.4 1.7 3.4 2.2 3.4 2.9 3 7 3.5 3.5 2.2 4.5 5.5 1.8 1.4 2.9 0.7 10.7 0.1 3.7 11.3 2.1 3.1 1.1 0.8 1.1 0.4 1 0.6 1.1 1.3 1.8 2.8 1.6 1.8 1.9 0.9 11.6 1.4 1.6 2.2-0.3 5-0.1 0-0.9 0.3-6.4 3.4-4.8 3.8-7.1 7.6-1.6 2.5-3.5 6.9-0.6 2.8-0.2 2.9-1.5 6.5-1.2 2.6-4.4 4.2-5.7 2-26.7 3-50.2-3.6-6.1 0.3-3.3 0.8-1.7 0.7-0.7 0.8-0.7 0.4-3.4 0.1-1.2 0.4-2.6 1.9-9.4 2.6-2.1 1.4-3.9 3.6-5.4 1.6-2 2.1-1.6 2.5-2.2 2.3-11.1 3.8-0.7 0.4-1.8 1.8-0.8 0.7-1.3 0.4-2.2 0.2-30.1 9.7-6.3 0.8-0.9 0.5-1.7 0.8-10.3 8.6-1.1 1.6-0.7 2.2-1.9 1.9-5 3.1-9.8 2.5-1.7 0-1 1-2.3 1.7-2.3 0.8-1.2-2-7.2 5-1.8 0.7-8.2 6.7-3.3 4-2.1 1.3-10.4 1.5-3.2-0.1-2.1-1.9-0.9 1.3-1.4 0.4-3.4 0.3-3.4 0.8-1.7-0.1-0.7-1.2-0.5-1.3-1.1 0.3-1.7 1.5-2.3 0.2-2.3 0.6-14.6 6.3-1.4 2-1.3 1.2-2.9 1.7-5.5 2.5-2.9 0.6-9.1 0.3-1.5 0.4-3.2 2-1.6 0.6-1.4 0.1-2.9-0.2-1.4 0.1-2.6 0.8-5.1 2.5-9.7 1.4-3.2 1.2-2.3 1.7-0.1 0.1-2-1-2.5-0.2-2.4 0.6-1.7 1.4-0.2 1.2 0.9 2.1-0.3 1.1-0.9 1-0.5 0.5-9.6 4.8-1.7 1.3-4.1 4.4-0.3 1.1 0.3 0.9-0.1 0.7-1.3 0.2-1.3 0.1-9.6 2.8-10.7 4.8-2.2 2-3.4 4.8-2.1 2-2 0.8-9.7 1.2-1.9 0.8-3.7 0.1-0.8-0.1-1.1-1-0.4-1.4 0.2-1.6-0.3-1.3-1.9-0.5-1.1-0.1-2.1-0.7-1.6-0.1 0.2-0.7-1.3-1.4-6-4.7-3-1.3-1.3-0.8-0.6-1.2-0.2-1.1-0.6-1.1-0.8-0.8-14.6-5.7-23.7-4.9-23-7.8-18.3-1.4-20.2-3.6-19.4-5.9-2.2-0.5 0.6-2.4 1-0.2 1.3-0.5 1.6-0.3 10 0.1 3 0.9 0.8 0.8 1.8 2.5 0.7 0.5 1.9-0.2 2.8-1.2 1.6-0.5-0.4-3.9 3.9-1.6 5-0.8 3-1.4 5.6 0.3 3.2-0.5 2-1.4 1.4-2.7-0.8-0.9-1.8-1.6-0.5-0.5-0.1-1.2 0.6-3 0.1-1.2-0.7-1.6-1.9-2.8-0.4-2 0.9-8.7 4.7 0.9 1.9-0.3 1.4-1.8 0.3-2.5-0.6-2.5-3.8-9-2.5-10-0.3-7.4-0.5-2.3-1.1-1.8-1.8-1.5-10-2.6-2.3 0.9-4.5 2.8-2.8 0.3-3.3-1.8-0.7-3.6 1.4-8.8-9.1 0.7 1.3-16-0.3-5.1-1.7-5.1-5.4-9.9-2-5-4.3-23.5-3-7.9-4.1-3.7-0.4-0.5-1.7-2.1-11-49.7 0.2-2.4 1-1.5 2.6-1.4 0.7-0.9 2.8-7.8-0.4-0.9-1.8-3.7-1.8-2.2-0.6-1.5 0.2-5.1 2.3-5.4 16.2-27.8 1.7-1.1 0.1 0 0.2-0.1 6.9-2.3 0.7-1 1.2-7 0.7-1.5 6.4-8 1.2-2.8 0.2-1.9-0.7-1.1-0.9-1.2-0.9-2-0.1-1.6 6.8-43.3 1.9-5.7 10.1-21.8 0.6-0.9 1.4-1.7 0.5-1 0-0.7-0.4-1.9 0.1-0.7 1.3-1.1 3.1-1.9 1.1-1.2 0.4-1.6 0.7-10.5 0.4-1.1 0.8-0.1 1 0.7 0.7 0.8 0.2 0.4 2.3-1.9 6.4-7.4 2.5-1.9 8.4-2.8 2.9-1.4 1.4-1.9 0.1-2.4-0.9-3.4-1.9-4.1-0.3-1.8 0.6-2.2 1-1.9 0.9-0.8 1.1 0 1.8 0.9 1.6 0.1 1.9-0.6 6.3-3.7 1-2.2-6.5-39.6-6.4-39.7-0.7-2.2-1.2 0.6-0.1-0.1-0.7-1.1 0.4-1.8 1-0.9 1.5-0.9 0.2-1.9-2.9-9.9-0.1-2.4-0.4-1.3-0.7-0.3-1-0.1-0.8-0.7-2.2-6.6-0.2-2.9-0.9-2.3-3.5-1.9-3.5-0.8-3.6-0.2-2-0.3-1.1-0.8-0.9-0.9-1.3-0.8 1.3-2 0.6-2.2 0.2-7.1 0.6-1.2 3-3.1 2.4-5 1.7-2.6 4.4-2.3 1.7-2.7 0.2-2.7-2.2-1.2-2.5-0.6-1.9-1.4-1.1-2.2 0.2-2.7 1.4-1.9 1.9-0.9 1.7-1 0.7-2.4 0-3.9-0.7-2.3-0.2-1.2 0.6-4.5-0.1-2-1.9-2.4-5.1-6.4-5-4.6-0.7-1.5-0.3-2.3 0.2-2.3 0.7-2.3 1.2-2.1 1.8-1.5-0.4-0.4-1.1-0.8-0.4-1.3-0.2-1.3-0.7-1.2-1.2-0.6-0.8 0.1-0.8-0.1-1.1-1.3-1-3 0.5-2.9 2.4-4.8 4.8-5.4 0.9-1.5-0.4-1.4-3.3-5.4-0.6-3.5 1.3-6.5 0.1-3.6-0.9-2.6-3.2-4.8-0.6-2.9 0-12.2-1.5-6.4 0.1-2.8 1.8-3 2.8-2.2 1.1-1.2 0.4-1.9 0-1.9-0.5-0.7-0.9-0.5-1.4-0.8-1.4-0.5-1.2 0-0.9-0.3-0.3-1.7-0.5-0.9-1.2-0.3-1.5-0.2-1.2-0.5-1.1-2.3 0-3 0.7-2.9 0.9-2.1 1-1.3 1.1-0.9 1.4-0.5 1.8-0.1 1.5-0.6 1.3-1.4 0.6-1.3-0.5-0.6-3.5-0.1-2.3-0.4-1.7-0.9-4.9-4.3-1.1-1.8-0.4-2.8-0.4-0.7-1.9-1.9-0.7-0.8-0.3-1.4-0.3-3-0.3-1.4-4.2-7.5-0.6-2.8 0.4-1.4 1.9-3.4 0.8-2.3 0.4-0.6 0.3-0.6 0-0.9-0.4-0.6-0.6-0.3-0.6-0.2-0.3 0-0.1-0.6-0.4-1.4 0.4-0.9 1.5-1.5 0.8-1.3 0.5-3.3 2.4-3.9 1.5-6.6 1.1-2.9 1.8-2.2 2.3-1.7 1.9-2.1 0.7-3.3-0.8-2.7-1.5-2.5-0.9-2.8 0.4-1-0.2-0.8 12.1 0.2 0.1 1.5 3 0 13.2-0.1 27.3-0.3 33.9-0.4 31.5-0.3 30.6-0.3 21.8-0.2 1.6-0.9 1-2.5 2.5-0.8 17.7 0.6 1.7 0.7 1.4 0.5 4.7 1.8 3.5 0.7 17.8 0.2 16.9 0.1 1.2-2.2 4-0.6 19.3 1.6 1.2 0.2 1 0.7 1 2 0.7 0.4 1.5 0-1 1.9 2.5-0.3 3.1-3.5 3-0.5 0.8-1 0.8-0.3 0.8 0.3 0.8 1 15.9 0.3 1 0.1 0.2 1.6 0.6 0.1 1-0.4 1.3 0.2 0.8 1-0.6 1.1-1 1.1-0.5 1 6.8 6.5 2.4-1.5 1.4-3.2 1.1-3.5 1.3-2.4 2-0.7 2.9-0.4 5.4 0.2 0.5-0.1 0.5-0.3 0.4-0.3 0.3-0.4 1.4-1.6 3.6-1.8 1.7-1.3 0.8-1.5 0.3-3.3 0.6-2 2.7-3.5 2.7 0 2.7 2.2 2.5 3 7-5.2 1.8-1.7 1.1-2.1-0.3-1.3-0.6-1.3 0.4-2.3 19 3.9z" id="GH" name="Ghana">
  </path>
 </g>
 <g id="points">
  <circle class="5.058418561227566|-3.0399854329008447" cx="219.5" cy="909.4" id="0">
  </circle>
  <circle class="7.628742244604791|-0.814746581897597" cx="531.2" cy="547.2" id="1">
  </circle>
  <circle class="10.841646848826322|0.9654444989050011" cx="780.5" cy="91.3" id="2">
  </circle>
 </g>
 <g id="label_points">
  <circle class="Ghana" cx="500" cy="534.6" id="GH">
  </circle>
 </g>
</svg>